<svg version="1.0" xmlns="http://www.w3.org/2000/svg"
 width="1104" height="1236" viewBox="0 0 1104.000000 1236.000000"
 preserveAspectRatio="xMidYMid meet">
<g transform="translate(0.000000,1236.000000) scale(0.100000,-0.100000)"
fill="currentColor" stroke="none">
<path d="M5044 9840 l-21 -8 -38 -54 -39 -53 -28 -35 -29 -35 -47 -54 -47 -53
-17 -17 -18 -16 -37 -39 -38 -40 -32 -33 -33 -34 0 -10 0 -11 -85 -86 -85 -86
0 -12 0 -13 -94 -93 -95 -93 -11 -10 -10 -10 -30 -39 -30 -39 0 -6 0 -7 -85
-88 -85 -87 0 -13 0 -13 -66 -64 -66 -64 -12 -13 -11 -14 -26 -26 -26 -27 -55
-70 -56 -70 -42 -40 -42 -40 -23 -35 -22 -35 -95 -100 -95 -100 -73 -85 -73
-85 -19 -20 -19 -20 -54 -58 -55 -57 0 -9 0 -9 -52 -55 -53 -55 -48 -51 -48
-51 -11 -28 -12 -27 -36 -35 -35 -34 -41 -36 -42 -35 -51 -62 -51 -61 -15 -36
-15 -36 -9 0 -8 0 -45 -40 -45 -39 -44 -62 -44 -62 -86 -86 -86 -86 -39 -50
-38 -50 -41 -40 -40 -41 -50 -64 -50 -64 -92 -93 -93 -94 0 -7 0 -8 -45 -45
-46 -44 -14 -26 -14 -27 -28 -29 -28 -29 -50 -57 -50 -56 -25 -31 -25 -32 -68
-69 -68 -69 -18 -30 -18 -30 -74 -77 -74 -77 -29 -41 -29 -40 -105 -106 -105
-107 -16 -31 -16 -30 -45 -52 -45 -51 -57 -57 -58 -56 0 -9 0 -9 -48 -56 -47
-55 -70 -76 -70 -77 -40 -44 -40 -44 -32 -39 -33 -39 0 -582 0 -581 27 -25 28
-25 62 -37 61 -37 10 0 10 0 29 -24 29 -25 27 -6 27 -7 9 -15 8 -15 39 -23 39
-24 93 -46 92 -47 6 -10 6 -10 42 -19 41 -20 55 -34 55 -35 35 -16 35 -16 25
-18 25 -17 32 -11 32 -11 63 -43 63 -43 37 -20 37 -20 95 -49 96 -48 6 -10 6
-10 42 -19 41 -19 63 -45 63 -45 12 0 12 0 30 -16 30 -17 45 -22 46 -23 13
-15 12 -16 30 -6 29 -7 5 -9 6 -9 52 -34 52 -34 35 -16 35 -16 25 -15 25 -14
26 -13 26 -13 44 -24 44 -24 28 -23 29 -24 10 0 10 0 30 -21 29 -21 47 -25 47
-25 46 -14 46 -14 18 -20 18 -20 14 0 13 0 18 -17 18 -18 55 -37 55 -38 12 0
12 0 62 -32 63 -32 28 -23 29 -23 13 0 13 0 30 -25 30 -25 10 0 9 0 38 -30 38
-30 13 0 14 0 62 -32 63 -32 16 -13 16 -14 57 -34 56 -34 23 -7 22 -7 26 -22
27 -22 83 -42 84 -43 35 -18 35 -19 15 -14 15 -15 35 -16 35 -16 35 -25 35
-24 25 -18 25 -18 58 -27 59 -28 14 0 13 0 34 -30 35 -30 9 0 10 0 29 -22 28
-23 35 -22 36 -23 35 -15 35 -16 70 -35 70 -35 45 -29 45 -29 30 -17 30 -17
33 -28 33 -29 48 0 48 0 34 23 34 23 80 44 80 44 19 18 19 17 28 6 28 6 11 14
12 14 48 16 48 16 6 14 5 14 33 16 33 16 50 30 50 29 50 26 50 26 45 27 45 26
34 20 34 20 26 22 27 22 28 7 28 7 5 14 6 15 41 19 41 18 30 18 30 17 45 27
45 27 29 6 30 7 29 25 29 24 10 0 10 0 26 21 27 21 55 34 54 34 16 0 16 0 34
25 34 25 11 0 11 0 51 33 50 32 42 25 42 25 36 28 36 27 13 0 13 0 63 32 63
31 28 24 29 23 10 0 10 0 30 25 30 25 19 0 19 0 19 19 20 20 93 46 93 46 35
25 35 25 15 13 15 13 36 12 37 12 17 19 17 19 28 6 28 6 27 25 26 24 19 0 18
0 29 23 28 24 30 16 30 16 41 21 41 20 12 14 13 15 36 12 37 12 35 23 35 24
11 0 11 0 38 30 38 30 9 0 10 0 28 23 27 22 29 17 29 17 15 10 15 10 85 41 85
42 39 23 38 23 7 10 6 11 48 20 47 20 0 10 0 9 36 12 37 12 35 24 35 24 14 0
15 0 41 29 42 28 78 52 79 51 17 0 18 0 37 25 37 25 9 0 8 0 29 24 28 24 38
15 37 16 0 10 0 10 43 21 42 21 46 27 47 27 36 25 36 25 11 35 10 35 -3 550
-3 550 -35 45 -35 45 -35 35 -35 35 -47 60 -48 60 -18 22 -17 22 -77 80 -76
81 -12 34 -11 35 -35 21 -34 22 -70 85 -70 84 0 7 0 8 -41 39 -40 40 -21 20
-20 20 -42 54 -41 53 -12 21 -12 21 -64 61 -64 61 -25 40 -25 39 -79 85 -79
85 -59 73 -59 72 -11 8 -12 7 -87 105 -87 105 -53 59 -52 60 -55 62 -55 62
-30 42 -30 41 -80 82 -80 82 -25 39 -25 39 -74 76 -73 76 -16 25 -16 25 -31
39 -30 39 -20 22 -20 21 -57 62 -58 62 0 12 0 13 -55 60 -55 60 -33 35 -33 35
-39 50 -40 50 -62 67 -63 67 0 11 0 10 -30 33 -30 32 -18 20 -18 20 -16 25
-16 25 -87 95 -86 95 -20 38 -20 38 -12 5 -13 5 -39 49 -40 50 -16 5 -17 6
-13 32 -13 32 -55 65 -55 65 -17 15 -18 15 -90 110 -90 110 -28 34 -28 33 -21
22 -22 21 -88 105 -87 105 -47 45 -47 45 -30 40 -30 40 -4 12 -4 12 -100 105
-100 104 -28 33 -29 33 -14 28 -14 27 -50 47 -50 47 0 13 0 13 -100 103 -100
103 -22 32 -23 32 -23 10 -23 11 -17 -1 -17 0 -21 -9z m-36 -3224 l-3 -2931
-5 -975 -5 -975 -21 -3 -21 -3 -31 25 -30 26 -9 0 -9 0 -33 24 -33 25 -29 6
-28 6 -12 16 -13 15 -51 24 -50 24 -45 30 -45 30 -42 20 -43 19 0 10 0 9 -45
17 -45 18 -11 14 -12 13 -44 12 -45 11 -5 13 -5 13 -36 23 -37 23 -50 27 -50
27 -43 22 -44 21 -19 19 -19 19 -19 0 -19 0 -30 25 -30 25 -10 0 -10 0 -29 24
-28 23 -69 37 -69 36 -9 0 -9 0 -81 55 -81 55 -9 0 -10 0 -30 25 -30 25 -12 0
-12 0 -33 24 -32 24 -33 6 -33 6 -21 25 -22 25 -14 0 -14 0 -29 23 -28 24 -27
14 -26 14 -94 48 -93 49 -19 16 -18 17 -42 22 -41 21 -41 20 -42 20 -7 11 -6
11 -51 28 -51 27 -36 19 -36 18 -15 13 -15 13 -25 7 -25 8 -27 23 -28 23 -19
6 -20 6 -82 54 -82 55 -9 0 -10 0 -26 19 -27 18 -27 7 -26 6 -30 25 -30 25
-10 0 -10 0 -29 24 -29 25 -26 6 -27 7 -16 18 -17 19 -92 46 -91 46 -41 27
-42 27 -58 39 -58 39 -31 10 -30 10 -15 13 -15 12 -42 17 -43 17 0 8 0 8 -30
12 -31 13 -26 21 -27 21 -35 22 -36 21 -82 41 -83 41 -9 0 -9 0 -13 16 -13 15
-35 20 -36 20 -45 29 -45 30 -35 17 -35 18 -30 21 -30 21 -35 12 -34 11 -23
22 -23 21 0 23 0 22 66 58 65 59 29 40 30 40 16 30 16 30 54 45 54 45 27 40
27 40 18 20 17 20 88 92 88 92 30 41 30 41 25 28 25 28 66 74 67 74 46 53 46
53 0 8 0 9 83 83 82 84 110 128 110 128 43 54 43 54 84 86 85 86 15 29 14 28
40 34 39 33 61 73 61 73 0 13 0 14 44 36 44 36 39 37 40 38 31 45 30 45 19 17
18 16 58 64 58 63 35 45 35 45 47 52 47 51 63 69 63 68 13 15 13 15 93 110 93
110 23 25 24 25 57 63 58 63 55 61 55 60 22 20 22 20 12 29 11 29 38 28 39 28
39 55 40 54 24 28 23 27 40 38 39 37 21 22 20 21 12 15 12 15 20 33 20 33 56
48 57 48 8 0 8 0 16 34 16 34 38 49 39 48 32 30 32 30 51 67 50 67 34 26 34
26 60 72 59 72 24 25 23 25 59 70 59 70 51 55 50 56 33 39 34 40 76 81 77 81
44 51 44 52 14 -11 13 -12 -2 -2931z m261 2875 l66 -69 28 -31 27 -31 0 -12 0
-11 70 -73 69 -73 26 -41 25 -40 89 -90 89 -90 43 -65 43 -65 6 0 6 0 56 -52
56 -53 19 -30 18 -30 15 -18 15 -19 63 -63 62 -64 0 -15 0 -16 25 -16 24 -16
6 -16 5 -17 52 -57 53 -56 10 -14 11 -13 77 -87 77 -87 25 -37 25 -37 22 -22
23 -23 55 -60 55 -60 22 -30 23 -30 7 -18 7 -19 74 -75 74 -75 18 -35 19 -35
81 -85 81 -85 23 -35 24 -35 69 -75 70 -75 17 -32 17 -33 7 0 8 0 39 -55 40
-54 21 -12 22 -11 10 -23 10 -22 41 -44 41 -44 66 -80 65 -80 72 -78 72 -78
12 -28 12 -28 105 -107 106 -106 0 -12 0 -12 19 -21 19 -20 77 -80 77 -80 15
-30 16 -30 25 -25 24 -25 84 -88 84 -88 0 -9 0 -8 60 -72 61 -73 27 -27 27
-27 48 -51 47 -51 0 -8 0 -9 48 -50 48 -49 62 -73 62 -73 0 -8 0 -8 58 -60 57
-60 53 -57 52 -57 0 -13 0 -13 77 -79 78 -78 42 -57 42 -57 65 -65 65 -65 25
-41 26 -41 0 -12 0 -13 -36 -29 -35 -28 -37 -10 -36 -10 -26 -20 -25 -19 -35
-24 -35 -25 -35 -16 -35 -16 -28 -24 -29 -24 -16 0 -16 0 -35 -23 -36 -22 -20
-13 -20 -12 -45 -23 -45 -22 -20 -18 -20 -18 -40 -26 -40 -26 -30 -10 -30 -10
-15 -12 -15 -13 -40 -21 -40 -21 -64 -40 -63 -40 -7 0 -7 0 -40 -30 -39 -29
-11 -1 -11 0 -35 -23 -34 -24 -34 -11 -33 -12 -14 -20 -14 -20 -12 0 -12 -1
-39 -29 -40 -30 -11 0 -12 0 -18 -20 -17 -19 -37 -12 -36 -12 -23 -18 -23 -18
-29 -6 -29 -6 -13 -16 -13 -16 -40 -19 -40 -18 -35 -25 -35 -24 -24 -17 -24
-17 -86 -43 -86 -44 -64 -40 -63 -40 -9 0 -9 0 -32 -30 -31 -30 -8 0 -7 0 -29
-24 -29 -24 -41 -11 -42 -12 -5 -8 -6 -9 -42 -22 -43 -22 -46 -26 -46 -27 -44
-24 -44 -24 -28 -23 -29 -24 -12 0 -13 0 -24 -19 -24 -18 -25 -8 -25 -8 -28
-23 -29 -24 -13 0 -13 0 -29 -24 -28 -24 -35 -16 -35 -16 -60 -37 -60 -36 -40
-16 -40 -17 -33 -19 -34 -20 -35 -27 -36 -28 -11 0 -11 -1 -39 -29 -40 -30
-13 0 -14 0 -37 -25 -37 -25 -10 0 -10 0 -65 -45 -65 -46 -59 -39 -60 -40 -12
0 -11 0 -25 -19 -24 -19 -41 -11 -42 -12 -6 -8 -5 -9 -60 -41 -60 -41 -9 0 -8
0 -25 -19 -24 -19 -88 -45 -87 -45 -12 -10 -12 -10 -25 -3 -25 -3 -12 7 -13 8
0 3057 0 3057 10 60 10 60 0 768 -1 767 11 20 11 20 16 0 16 0 66 -69z m-4873
-5275 l6 -15 27 -9 27 -9 56 -37 57 -36 5 -9 6 -10 38 -12 37 -12 15 -13 16
-13 41 -15 42 -15 18 -16 18 -16 35 -24 35 -24 45 -24 45 -24 52 -26 51 -26 6
-10 6 -9 29 -7 28 -6 23 -25 23 -24 12 0 12 0 49 -32 49 -32 28 -23 29 -23 22
0 23 0 26 -20 26 -21 33 -11 33 -11 20 -19 20 -19 55 -35 54 -34 13 0 12 0 13
-18 13 -19 80 -35 80 -35 15 -7 15 -6 45 -35 45 -35 40 -19 40 -18 13 -16 14
-16 36 -12 37 -11 20 -18 20 -17 29 -7 30 -7 29 -25 29 -24 10 0 10 0 30 -25
30 -25 13 0 14 0 23 -25 23 -25 38 -20 37 -20 33 -18 32 -18 25 -16 25 -16 32
-7 32 -6 13 -16 13 -16 40 -18 40 -19 45 -35 45 -35 32 -15 32 -15 11 0 11 0
37 -25 37 -25 11 0 11 0 38 -30 38 -30 12 0 13 0 12 -15 13 -15 41 -18 41 -19
14 -16 13 -17 11 0 10 0 71 -36 71 -35 35 -24 35 -24 25 -19 25 -19 37 -17 37
-18 12 -14 11 -14 13 0 12 0 35 -23 34 -24 29 -10 30 -10 40 -26 40 -26 27
-20 26 -21 10 0 10 0 29 -24 28 -23 35 -12 36 -11 16 -20 17 -19 28 -7 28 -7
60 -34 60 -34 40 -30 40 -29 50 -26 50 -26 15 -13 15 -12 29 -7 29 -7 31 -23
31 -24 21 -6 21 -7 18 -19 18 -20 13 0 12 0 29 -24 28 -24 35 -15 35 -14 28
-26 27 -26 -2 -448 -3 -448 -18 -3 -19 -4 -19 21 -20 21 -12 0 -13 0 -80 52
-79 52 -35 18 -35 18 -15 9 -15 9 -85 42 -85 41 -40 30 -40 30 -60 30 -60 30
-35 19 -35 20 -10 13 -10 13 -90 46 -90 46 -45 24 -45 24 -30 18 -30 19 -42
28 -41 29 -10 0 -9 0 -26 20 -26 20 -39 14 -40 14 -48 36 -49 36 -60 29 -60
28 -54 37 -53 36 -27 6 -26 6 -35 22 -35 23 -42 27 -42 28 -30 17 -30 16 -91
47 -90 47 -27 18 -28 19 -20 12 -20 12 -44 22 -45 21 -39 28 -40 29 -12 0 -12
0 -24 19 -24 18 -37 12 -38 13 0 7 0 8 -57 35 -58 36 -25 7 -25 8 -31 23 -31
24 -10 0 -9 0 -33 24 -33 25 -28 6 -28 6 -18 20 -18 20 -40 20 -41 20 -30 16
-30 16 -28 24 -29 23 -11 0 -12 0 -30 16 -30 17 -45 24 -45 24 -46 27 -47 27
-28 19 -29 20 -20 17 -20 17 -37 11 -36 12 -12 14 -12 14 -36 12 -37 12 -28
23 -29 24 -10 0 -10 0 -45 28 -44 27 -36 28 -36 27 -16 0 -17 0 -34 25 -34 25
-22 0 -21 0 -36 28 -35 27 -33 20 -32 20 -26 15 -26 15 -32 23 -31 22 -7 0 -7
0 -30 22 -31 21 -66 34 -66 33 -8 0 -8 0 -45 37 -44 37 0 466 0 467 7 6 6 7
14 0 14 0 5 -14z m9304 -511 l0 -464 -26 -18 -25 -18 -27 -21 -27 -20 -41 -12
-41 -12 -18 -20 -18 -20 -11 0 -10 0 -35 -23 -36 -24 -29 -19 -28 -19 -42 -27
-41 -27 -82 -41 -83 -40 -7 0 -8 0 -55 -37 -55 -38 -5 -6 -5 -6 -50 -27 -50
-27 -50 -30 -50 -29 -40 -21 -40 -20 -57 -32 -56 -32 -54 -36 -53 -35 -33 -12
-33 -11 -26 -21 -26 -20 -12 0 -12 0 -38 -30 -38 -30 -12 0 -13 0 -13 -16 -14
-17 -41 -18 -42 -17 -6 -11 -7 -11 -74 -35 -74 -35 -5 0 -4 0 -53 -32 -54 -33
-25 -18 -25 -18 -45 -29 -45 -30 -11 0 -11 0 -36 -24 -35 -24 -23 -7 -24 -7
-30 -23 -30 -22 -22 -7 -23 -7 -14 -14 -13 -14 -44 -26 -44 -26 -35 -15 -35
-14 -15 -10 -15 -10 -42 -21 -42 -20 -7 -10 -6 -11 -42 -19 -41 -20 -46 -27
-46 -27 -17 -17 -17 -18 -27 -7 -26 -6 -50 -27 -51 -26 -40 -25 -40 -25 -20
-12 -20 -12 -41 -20 -41 -20 -12 -14 -12 -14 -32 -13 -32 -12 -25 -17 -25 -17
-25 -8 -25 -7 -32 -24 -32 -24 -6 0 -7 0 -31 -22 -31 -23 -40 -22 -41 -21 -50
-26 -50 -26 -15 -10 -15 -10 -35 -15 -35 -15 -45 -35 -45 -35 -25 -12 -25 -12
-28 -23 -29 -23 -10 0 -11 0 -31 -24 -31 -23 -25 -8 -25 -8 -62 -33 -62 -33
-48 -27 -48 -28 -5 -7 -5 -7 -31 -18 -30 -19 -33 -21 -32 -22 -38 -6 -38 -6
-13 -15 -12 -15 -13 0 -13 0 -6 16 -6 16 1 256 2 257 6 185 6 185 80 40 80 40
30 19 30 20 21 19 22 18 33 19 34 19 50 25 50 26 25 14 25 14 25 12 25 11 45
27 45 27 34 20 34 20 27 22 28 23 76 39 77 39 14 12 14 12 36 19 35 19 34 18
33 19 28 21 28 22 11 0 12 0 34 25 34 25 32 6 32 6 23 24 22 24 10 0 9 0 35
30 34 30 14 0 13 0 29 23 28 24 30 10 31 10 109 62 109 62 49 40 50 39 16 0
16 0 69 35 70 35 20 18 21 18 65 33 65 33 28 24 29 24 12 0 13 0 35 23 34 24
32 11 33 11 30 23 31 23 21 21 22 21 30 7 30 7 21 20 21 20 34 18 34 18 60 33
60 32 40 20 39 20 26 18 25 17 29 19 29 19 36 22 36 22 50 26 50 25 40 23 40
22 30 19 30 20 63 40 62 40 0 8 0 8 44 11 45 11 32 24 33 24 12 0 11 0 29 23
28 22 35 22 36 22 43 20 42 20 0 10 0 9 39 15 39 16 7 10 6 10 51 16 51 15 16
15 16 16 70 44 70 45 12 10 12 10 28 12 28 12 108 59 107 59 0 9 0 9 35 0 35
0 0 -465z"/>
</g>
</svg>