<svg version="1.0" xmlns="http://www.w3.org/2000/svg"
 width="1188" height="1134" viewBox="0 0 1188.000000 1134.000000"
 preserveAspectRatio="xMidYMid meet">
<g transform="translate(0.000000,1134.000000) scale(0.100000,-0.100000)"
fill="currentColor" stroke="none">
<path d="M6300 10139 l-25 -10 -22 -21 -22 -21 -19 -11 -19 -11 -34 -19 -34
-18 -20 -18 -20 -18 -40 -12 -40 -12 -20 -18 -20 -18 -36 -11 -37 -12 -17 -19
-18 -20 -12 0 -12 0 -19 -21 -19 -22 -40 -18 -40 -19 -15 -10 -15 -10 -35 -15
-35 -16 -46 -27 -47 -27 -49 -27 -49 -26 -13 -16 -13 -16 -13 0 -13 0 -29 -24
-28 -23 -45 -21 -45 -22 -15 -10 -15 -10 -25 -11 -25 -11 -60 -33 -60 -34 -42
-20 -41 -20 -9 -14 -8 -14 -31 -16 -30 -16 -13 -14 -12 -15 -33 -6 -34 -7 -24
-18 -23 -19 -35 -16 -35 -16 -55 -35 -55 -34 -32 -16 -31 -17 -6 -13 -5 -13
-38 -12 -38 -13 -15 -13 -16 -13 -39 -14 -40 -14 -68 -47 -67 -46 -8 0 -7 0
-35 -23 -35 -22 -95 -52 -95 -53 -42 -19 -43 -20 0 -10 0 -10 -47 -24 -48 -24
-50 -28 -50 -28 -45 -24 -45 -23 -64 -40 -63 -40 -8 0 -8 0 -29 -24 -28 -23
-88 -42 -88 -42 -18 -17 -18 -17 -33 -20 -33 -20 -46 -27 -46 -27 -35 -17 -35
-16 -27 -19 -26 -19 -14 0 -15 0 -129 -85 -129 -85 -16 0 -16 0 -26 -20 -25
-20 -78 -41 -79 -42 -28 -23 -29 -24 -13 0 -14 0 -11 -20 -10 -19 -39 -11 -39
-10 -12 -15 -12 -15 -50 -15 -50 -14 -34 -21 -34 -21 -20 -26 -20 -26 0 -2086
1 -2086 12 -23 13 -23 26 -17 25 -17 43 -30 42 -30 52 -32 51 -32 40 -22 40
-21 15 -13 15 -13 25 -7 25 -8 30 -21 30 -21 27 -15 27 -15 59 -41 58 -41 24
-8 25 -8 27 -18 26 -19 11 0 12 0 26 -26 26 -26 40 -14 41 -15 6 -8 5 -8 40
-22 40 -22 65 -39 65 -39 16 0 15 -1 40 -30 39 -29 12 -1 11 0 29 -24 29 -25
27 -6 26 -7 12 -14 12 -14 104 -53 105 -52 37 -20 37 -20 54 -42 55 -41 42
-11 42 -12 7 -10 7 -11 51 -24 51 -25 47 -27 46 -27 29 -19 28 -19 36 -24 35
-23 7 0 8 0 67 -31 67 -31 20 -18 20 -18 36 -11 37 -12 17 -19 18 -20 13 0 12
0 29 -24 28 -23 62 -32 62 -31 14 0 14 0 36 -27 35 -28 33 -20 33 -20 25 -13
26 -13 15 -10 15 -9 52 -25 51 -24 6 -10 6 -10 38 -12 37 -12 28 -23 29 -24
10 0 11 0 33 -25 33 -25 10 0 9 0 29 -23 28 -24 33 -11 33 -11 26 -21 26 -20
11 0 11 0 44 -30 44 -30 15 0 14 0 30 -25 30 -25 13 0 13 0 29 -24 29 -24 89
-48 90 -48 34 -17 33 -18 17 -15 16 -14 35 -16 35 -16 38 -24 37 -23 21 -21
20 -22 18 0 17 0 87 -46 87 -45 113 56 112 56 45 29 45 29 40 22 40 22 28 23
29 24 12 0 12 0 65 32 64 33 75 49 75 48 25 17 25 17 95 48 95 47 55 34 55 34
30 17 30 16 16 14 16 14 49 26 49 26 80 42 81 41 28 23 29 22 9 0 10 0 28 22
27 23 29 17 29 17 15 10 15 10 86 41 87 40 12 15 12 15 11 0 11 0 69 47 69 48
12 7 11 7 86 40 87 39 6 11 7 10 42 21 42 21 46 27 46 27 44 24 44 24 24 18
24 19 16 0 16 0 45 30 45 29 30 21 30 21 40 26 40 26 30 10 30 10 15 13 15 13
45 19 45 19 14 17 13 16 13 0 12 0 29 23 28 22 35 22 36 22 95 47 95 47 22 20
22 20 23 13 23 13 35 18 35 18 33 27 33 28 13 0 14 0 11 14 12 15 44 15 45 15
33 25 34 26 8 0 7 0 30 25 30 25 12 0 13 0 27 21 26 21 88 45 87 45 16 14 16
14 10 0 10 0 38 30 38 30 11 0 12 0 21 19 20 19 29 15 29 15 22 30 22 30 1
2117 1 2118 -8 7 -8 8 -65 27 -65 27 -50 15 -50 15 -15 13 -15 13 -45 12 -45
12 -22 20 -22 20 -38 8 -38 8 -55 17 -55 16 -85 11 -85 10 -55 19 -55 20 -120
1 -120 0 -88 -7 -87 -7 -5 -9 -6 -8 -59 -12 -60 -12 -32 -23 -32 -24 -15 0
-16 0 -45 -30 -45 -30 -11 0 -12 0 -13 -16 -14 -17 -40 -19 -40 -19 -25 -14
-25 -14 -26 -13 -25 -13 -33 -20 -34 -20 -26 -21 -26 -21 -22 -7 -23 -7 -52
-36 -53 -36 -43 -19 -43 -20 -36 -24 -36 -24 -27 0 -28 0 -11 13 -11 14 -6 34
-7 34 -23 45 -24 45 0 30 0 30 -20 37 -19 37 -12 48 -12 48 -30 75 -29 75 -18
25 -17 25 -11 33 -11 33 -21 26 -20 26 0 12 0 12 -20 26 -20 25 -11 50 -10 51
-23 24 -23 24 -41 85 -42 85 -15 13 -15 12 0 13 0 13 -17 13 -16 14 -18 41
-18 40 -21 19 -20 18 0 13 0 13 -19 18 -20 19 -25 34 -26 35 -14 31 -15 31
-40 59 -39 59 -66 69 -66 69 0 7 0 7 -27 30 -28 31 -20 25 -20 25 -95 108 -95
109 -65 61 -65 61 -71 64 -70 64 -33 25 -32 25 -22 20 -22 20 -27 20 -27 20
-46 33 -47 32 -36 16 -36 15 -56 42 -55 42 -30 22 -30 23 -32 15 -32 15 -8 -1
-8 0 -25 -10z m93 -172 l32 -14 13 -16 13 -16 30 -6 29 -7 10 -17 9 -18 68
-42 68 -43 35 -24 35 -25 72 -67 73 -66 27 -18 28 -18 50 -59 50 -60 41 -20
41 -20 6 -14 6 -15 66 -86 66 -86 13 -7 13 -8 59 -72 59 -72 25 -32 25 -33 21
-20 20 -21 20 -29 19 -28 25 -38 25 -38 43 -60 42 -61 0 -8 0 -9 48 -64 47
-63 27 -36 28 -36 15 -35 16 -35 18 -35 19 -35 7 -25 7 -25 18 -20 18 -20 12
-40 13 -40 17 -25 17 -25 26 -40 27 -40 6 -35 6 -35 23 -35 23 -35 7 -35 7
-35 19 -35 18 -35 11 -41 10 -42 15 -12 14 -12 11 -56 12 -57 15 -24 16 -25
18 -70 17 -71 7 -17 6 -16 -53 -35 -53 -35 -37 -12 -38 -11 -6 -10 -6 -10 -51
-24 -52 -24 -40 -30 -40 -31 -30 -14 -30 -14 -28 -26 -28 -26 -14 0 -13 0 -74
-37 -73 -37 -64 -43 -64 -43 -13 0 -12 0 -29 -24 -28 -23 -37 -12 -38 -12 -6
-10 -6 -10 -51 -25 -52 -24 -23 -14 -23 -13 -22 -20 -22 -21 -36 -11 -37 -12
-17 -19 -18 -20 -12 0 -12 0 -35 -23 -34 -24 -34 -11 -34 -12 -17 -16 -18 -16
-29 -16 -30 -17 -51 -28 -51 -27 0 -10 0 -9 -42 -11 -42 -12 -35 -24 -36 -24
-9 0 -9 0 -32 -24 -31 -24 -35 -17 -34 -16 -33 -19 -33 -18 -17 -15 -17 -15
-69 -36 -69 -36 -12 0 -12 0 -74 -48 -74 -48 -35 -22 -35 -22 -42 -20 -42 -21
-6 -9 -5 -8 -49 -17 -49 -16 -17 -19 -18 -20 -17 0 -17 0 -38 -30 -38 -30 -7
0 -7 0 -27 -25 -27 -25 -21 0 -22 0 -35 -24 -36 -23 -35 -21 -35 -21 -81 -40
-82 -41 -13 -16 -13 -15 -36 -19 -36 -19 -13 -15 -13 -15 -33 -7 -34 -6 -32
-24 -33 -24 -12 0 -12 0 -29 -24 -29 -25 -27 -6 -27 -7 -77 -70 -78 -70 -31
-14 -31 -13 -47 -52 -47 -52 -15 -31 -14 -31 -49 -65 -49 -65 -22 -21 -21 -22
-9 -55 -9 -56 -15 -23 -16 -24 -10 -55 -10 -54 -31 -62 -30 -62 -9 -6 -9 -5
-5 9 -6 9 -9 65 -9 64 -15 30 -16 29 -11 85 -11 84 -14 45 -14 45 -11 59 -10
60 -20 38 -20 39 -10 46 -11 46 -19 24 -19 24 -7 32 -6 32 -19 37 -19 37 -11
53 -11 53 -18 30 -18 30 -6 31 -7 32 -25 33 -24 33 0 12 0 12 -24 29 -23 28
-8 25 -8 25 -18 24 -19 24 -11 41 -11 41 -14 16 -14 15 -12 35 -12 34 -35 55
-35 55 -40 52 -41 52 -27 37 -28 37 0 13 0 12 -24 29 -24 28 -15 35 -14 35
-74 80 -74 81 -20 29 -20 30 -63 65 -62 65 -20 20 -19 20 -15 35 -15 35 -38
34 -38 33 -54 39 -53 39 -49 63 -48 62 -63 50 -63 50 -11 10 -11 10 -38 30
-37 30 -26 26 -27 25 -29 12 -28 13 -69 57 -70 57 3 24 3 24 45 33 45 33 68
35 69 36 10 0 10 0 35 30 34 30 10 0 11 0 30 25 30 25 11 0 12 1 39 29 40 30
11 0 12 0 25 19 25 20 29 7 29 7 33 29 33 28 13 0 13 0 38 30 38 30 12 0 12 0
17 19 17 19 27 7 27 7 15 13 16 14 44 21 45 21 60 39 60 39 15 7 15 7 25 23
25 22 41 11 42 11 12 14 11 15 31 6 30 7 21 24 21 24 11 0 12 0 40 29 39 29
23 7 23 7 33 22 32 22 74 38 74 37 45 30 45 29 29 18 29 17 26 22 27 22 30 7
29 7 20 17 20 18 36 11 37 12 17 19 18 20 11 0 12 0 54 34 55 35 16 15 15 16
44 15 44 16 16 13 15 14 22 6 21 7 25 19 25 20 68 36 69 36 15 14 16 13 100
49 99 49 14 17 13 16 13 0 13 0 13 17 14 16 60 29 60 29 90 47 90 47 28 18 27
17 26 18 26 17 42 27 41 28 42 19 43 20 27 19 28 19 40 25 40 26 25 7 25 7 32
24 32 24 4 0 5 0 57 35 58 34 16 15 16 14 39 11 39 10 21 20 21 19 20 5 20 5
23 1 23 1 32 -13z m3376 -2146 l36 -10 60 -15 60 -14 56 -7 57 -6 68 -24 69
-25 40 0 40 0 35 -19 35 -18 25 -7 25 -8 55 -25 55 -25 15 -8 15 -7 3 -15 3
-16 -46 -28 -46 -29 -32 -22 -32 -21 -100 -52 -100 -51 -45 -34 -45 -35 -30
-15 -30 -16 -60 -34 -60 -35 -40 -20 -40 -20 -45 -30 -45 -30 -28 -18 -29 -17
-26 -20 -26 -20 -51 -20 -50 -21 -55 -35 -55 -36 -51 -31 -51 -32 -10 0 -10 0
-18 -20 -19 -21 -40 -19 -41 -20 -15 -10 -15 -10 -35 -15 -35 -15 -45 -35 -45
-35 -40 -21 -40 -20 -60 -33 -60 -34 -40 -21 -40 -22 -46 -27 -47 -27 -38 -21
-39 -22 -19 -21 -19 -21 -12 0 -11 0 -81 -39 -81 -39 -7 -11 -6 -11 -37 -20
-37 -21 -35 -20 -35 -21 -24 -19 -24 -19 -17 0 -17 0 -24 -19 -24 -18 -45 -20
-45 -20 -14 -16 -13 -17 -13 0 -12 0 -24 -24 -24 -23 -25 -8 -25 -7 -32 -24
-32 -24 -9 0 -9 0 -36 -24 -35 -24 -23 -7 -24 -7 -20 -18 -20 -17 -32 -12 -32
-13 -17 -19 -17 -19 -13 0 -12 0 -29 -23 -28 -23 -80 -39 -80 -38 -28 -24 -29
-23 -17 0 -18 0 -24 -19 -24 -18 -40 -22 -40 -21 -45 -35 -45 -35 -23 -10 -23
-10 -13 0 -12 0 -34 -25 -34 -25 -11 0 -12 0 -19 -21 -19 -22 -40 -18 -40 -19
-47 -27 -47 -28 -68 -39 -68 -40 -35 0 -36 -1 -29 21 -30 22 -35 6 -35 7 -110
54 -110 54 -50 17 -50 16 -85 14 -85 13 -50 12 -50 11 -36 9 -37 9 -83 6 -82
5 -9 5 -8 5 0 9 0 8 33 21 32 20 55 38 55 37 30 18 30 17 40 20 40 21 20 15
19 15 40 11 40 11 28 23 28 24 20 6 20 6 0 9 0 10 43 21 42 21 15 13 15 13 25
7 25 8 35 23 35 24 15 0 16 0 82 55 83 55 8 0 8 0 38 30 38 30 17 0 17 0 26
20 26 21 33 11 33 11 18 16 18 15 37 23 37 22 41 20 42 19 6 11 7 11 74 35 74
35 9 0 9 0 17 19 17 19 32 13 32 13 28 23 29 23 13 0 13 0 29 24 28 23 37 12
36 12 12 14 12 14 36 12 37 12 28 23 29 24 9 0 9 0 68 49 67 49 42 11 42 12 6
9 6 9 42 19 42 19 14 16 13 17 12 0 12 0 54 34 55 34 27 21 26 21 8 0 7 0 76
36 76 37 28 23 29 24 10 0 10 0 30 25 30 25 18 0 18 0 13 16 13 16 46 22 45
23 55 29 55 30 25 14 25 15 33 28 33 27 14 0 13 0 29 24 28 23 31 7 32 7 33
25 33 24 9 0 10 0 31 23 31 23 45 22 45 21 39 32 38 32 32 17 31 17 78 42 77
41 15 0 15 0 57 30 56 30 34 0 34 0 37 16 37 15 70 6 70 5 4 4 4 4 10 0 10 0
36 -9z m-7674 -415 l30 -21 95 -75 95 -75 40 -26 40 -26 72 -79 72 -79 47 -35
46 -35 101 -100 102 -100 45 -60 45 -60 15 -19 15 -20 44 -40 44 -41 26 -39
26 -38 20 -33 20 -32 48 -56 47 -55 0 -9 0 -9 21 -22 20 -22 15 -33 14 -32 19
-25 18 -25 25 -40 25 -40 49 -75 49 -75 37 -73 38 -74 0 -12 0 -12 24 -32 24
-33 6 -38 6 -38 20 -18 20 -18 0 -13 0 -12 30 -57 30 -57 0 -11 0 -10 24 -51
24 -51 7 -40 8 -40 17 -35 18 -35 10 -51 11 -52 25 -45 24 -46 7 -53 7 -53 15
-29 15 -29 13 -83 14 -83 16 -31 16 -31 9 -77 9 -77 6 -55 7 -55 9 -30 8 -30
11 -164 11 -164 21 -39 22 -38 17 -5 18 -6 19 10 19 10 18 27 18 28 13 200 14
200 20 58 20 58 0 24 0 23 24 46 25 46 7 38 6 38 19 32 18 32 7 36 6 35 21 27
21 27 18 30 17 31 21 43 21 42 24 25 25 24 0 9 0 8 41 30 42 29 47 47 47 46
34 17 34 17 15 13 15 12 40 13 40 13 16 14 17 14 53 16 54 15 50 10 50 9 43
10 42 9 83 0 82 -1 60 -13 60 -13 40 -11 40 -11 100 -21 100 -20 70 -19 70
-19 55 -22 55 -22 30 -16 30 -15 30 -14 30 -14 35 -17 35 -17 13 -39 13 -40
-6 -525 -5 -526 -5 -1433 -6 -1433 -15 -6 -15 -6 -67 34 -67 33 -24 18 -24 18
-18 0 -17 0 -29 24 -29 25 -26 6 -26 7 -23 24 -22 24 -10 0 -10 0 -34 26 -33
25 -33 11 -32 11 -15 12 -15 12 -45 23 -45 23 -45 24 -45 24 -41 27 -42 27
-28 19 -29 19 -36 24 -35 23 -15 0 -14 0 -71 38 -71 37 -54 33 -54 33 -45 30
-45 29 -72 34 -71 34 -24 7 -23 8 -26 21 -26 21 -33 20 -33 20 -42 25 -43 25
-64 36 -63 36 -35 12 -35 12 -40 26 -40 26 -35 22 -35 22 -40 25 -40 26 -37
12 -38 12 0 7 0 8 -47 22 -48 22 -41 22 -40 22 -29 23 -28 22 -12 0 -12 0 -18
20 -19 21 -42 10 -43 11 -17 19 -17 19 -12 0 -11 0 -40 29 -39 28 -25 8 -25 7
-15 13 -15 13 -38 16 -37 15 -6 15 -6 15 -36 12 -37 12 -26 18 -25 18 -30 7
-29 7 -66 49 -67 48 -15 0 -15 0 -30 25 -31 26 -33 11 -33 11 -20 17 -20 18
-25 7 -24 8 -61 34 -60 34 -45 34 -45 34 -85 43 -85 42 -27 21 -26 20 -52 30
-52 30 -26 21 -27 21 -80 41 -81 40 -14 29 -13 28 -2 385 -2 385 13 85 12 84
-9 25 -10 24 11 30 10 30 0 1453 0 1453 17 10 18 9 10 -6 10 -6 30 -20z m8522
-96 l3 -125 -11 -75 -11 -75 9 -50 9 -50 -9 -43 -8 -43 15 -47 15 -47 -11 -75
-11 -75 -3 -1564 -4 -1564 -10 -31 -10 -31 -92 -45 -93 -44 -35 -23 -35 -23
-28 -25 -27 -25 -14 0 -14 0 -29 -24 -28 -24 -37 -10 -38 -10 -26 -21 -27 -21
-12 0 -12 0 -24 -19 -24 -19 -32 -18 -31 -19 -61 -42 -61 -42 -23 -7 -22 -7
-35 -23 -35 -24 -11 0 -11 0 -22 -24 -23 -24 -26 -7 -27 -6 -80 -53 -80 -52
-60 -29 -60 -28 -85 -56 -85 -55 -36 -23 -35 -23 -11 0 -10 0 -35 -24 -35 -24
-37 -12 -36 -12 0 -9 0 -10 -37 -15 -38 -16 -21 -20 -22 -19 -33 -19 -34 -19
-35 -16 -35 -15 -15 -10 -15 -10 -45 -21 -45 -21 -16 -15 -17 -14 -38 -21 -39
-20 -37 -19 -37 -19 -6 -11 -7 -11 -102 -48 -102 -49 -13 -15 -13 -16 -12 0
-11 -1 -39 -29 -40 -30 -12 0 -12 0 -29 -23 -28 -24 -80 -38 -80 -39 -25 -17
-25 -16 -29 -19 -28 -19 -37 -22 -36 -22 -100 -51 -100 -52 -32 -21 -32 -22
-42 -25 -42 -25 -35 -27 -35 -28 -18 0 -18 0 -27 -25 -27 -25 -12 0 -12 0 -36
-24 -35 -24 -23 -7 -24 -7 -43 -27 -44 -26 -80 -52 -81 -53 -5 0 -5 0 -82 -40
-83 -40 -12 -15 -12 -15 -27 0 -27 0 -12 12 -12 12 0 1943 0 1944 19 37 20 37
35 28 35 27 7 0 7 0 34 26 33 25 32 11 32 11 34 24 35 23 12 0 12 0 18 20 17
19 37 12 36 12 18 15 17 15 63 39 62 38 8 0 9 0 26 19 27 18 22 7 23 7 60 42
61 42 47 27 47 27 25 12 25 13 25 22 25 22 37 11 36 12 12 14 12 15 42 11 41
11 24 24 24 24 9 0 9 0 33 25 33 25 11 0 10 0 29 23 28 23 45 23 45 23 49 27
49 26 26 15 27 15 57 43 58 43 42 13 42 13 40 26 40 26 25 19 25 19 23 7 23 8
62 44 62 44 25 11 25 12 80 38 80 39 40 30 40 30 35 16 35 16 16 14 16 14 44
23 44 23 80 43 80 43 20 17 20 17 45 30 45 31 25 8 25 7 15 13 15 14 45 21 45
21 46 27 47 27 48 34 49 34 90 46 91 46 14 13 15 12 35 25 35 25 30 14 30 14
19 21 19 21 14 0 14 0 32 15 32 15 47 28 47 27 33 19 33 19 28 23 29 24 12 0
13 0 18 20 17 19 47 16 46 16 20 15 20 15 25 -3 25 -3 2 -125z"/>
</g>
</svg>