<svg version="1.0" xmlns="http://www.w3.org/2000/svg"
 width="417" height="606" viewBox="0 0 417.000000 606.000000"
 preserveAspectRatio="xMidYMid meet">
<g transform="translate(0.000000,606.000000) scale(0.100000,-0.100000)"
fill="#333" stroke="none">
<path d="M187 5584 l-7 -7 0 -13 0 -12 1723 -6 1722 -6 192 -6 193 -6 6 17 7
16 -10 10 -10 10 -1904 5 -1904 5 -8 -7z M1790 4176 l-55 -33 -104 -59 -104
-59 -46 -27 -46 -27 -20 -10 -20 -10 -50 -30 -50 -30 -35 -19 -35 -19 -90 -52
-90 -52 -15 -9 -15 -9 -75 -43 -75 -43 -55 -28 -55 -29 -24 -13 -24 -13 -8
-14 -9 -13 0 -737 0 -737 27 -26 28 -25 8 0 7 0 49 -35 50 -34 34 -18 34 -18
41 -22 40 -22 43 29 44 30 7 0 8 0 67 41 67 41 15 6 16 7 97 57 97 58 6 0 7 0
30 21 30 22 10 -14 9 -14 -4 -299 -3 -298 24 -23 24 -23 45 -22 44 -22 67 -39
67 -39 32 0 32 0 60 36 61 37 6 8 5 9 14 0 14 0 92 56 92 55 51 28 51 28 75
42 75 42 45 26 45 26 43 28 43 29 9 0 9 0 65 45 66 45 5 0 4 0 74 45 75 45 10
0 11 0 15 22 16 22 0 744 0 743 -27 26 -28 25 -20 9 -20 9 -15 9 -15 10 -77
45 -78 46 -15 0 -14 0 -131 -75 -131 -75 -7 0 -7 1 -29 29 -29 30 -9 0 -8 0
-55 74 -55 75 0 9 0 9 -26 49 -26 49 -9 65 -8 65 -28 23 -28 23 -35 18 -35 18
-88 51 -89 52 -16 0 -17 -1 -55 -33z m155 -57 l40 -24 50 -25 50 -26 0 -12 0
-11 -94 -56 -93 -55 -7 0 -7 0 -19 -16 -20 -15 -74 -42 -73 -42 -37 -19 -36
-18 -110 -65 -110 -64 -15 -9 -15 -10 -45 -26 -45 -27 -92 -53 -91 -54 -11 0
-11 0 0 -9 0 -10 -32 -15 -31 -16 -12 0 -12 0 -30 15 -31 15 -12 15 -12 15 -9
0 -9 0 -49 33 -50 32 -5 13 -6 13 28 11 27 12 40 25 40 25 40 23 40 23 25 13
25 12 13 12 13 13 8 0 8 0 92 55 92 55 47 25 47 25 66 38 67 37 13 11 14 11
45 22 45 23 43 29 43 29 8 0 9 0 73 44 74 45 20 -13 20 -12 40 -25z m207 -188
l6 -53 15 -32 14 -31 24 -46 24 -47 45 -60 45 -60 33 -18 32 -17 0 -17 0 -18
-32 -17 -33 -16 -55 -34 -55 -33 -70 -37 -69 -38 -14 -13 -13 -14 -9 0 -9 0
-117 -70 -117 -70 -5 0 -4 0 -75 -45 -74 -45 -6 0 -7 0 -33 -22 -33 -23 0 -23
0 -23 -24 -52 -24 -53 -17 -14 -18 -15 -67 2 -67 1 -64 46 -64 45 -26 33 -26
33 -35 51 -35 50 -26 75 -25 74 -6 31 -7 30 18 16 18 15 85 50 85 51 44 23 44
24 16 10 16 10 59 35 59 35 46 28 46 27 30 15 30 16 36 22 36 22 104 59 104
59 105 63 105 64 15 -3 15 -2 7 -54z m726 -345 l63 -39 -4 -11 -3 -10 -45 -25
-44 -24 -40 -26 -40 -25 -35 -21 -36 -20 -78 -45 -78 -45 -36 -22 -37 -22 -20
-11 -20 -10 -46 -28 -46 -27 -87 -50 -88 -50 -62 -35 -63 -35 -14 -11 -14 -11
-69 -38 -70 -38 -70 37 -71 37 -44 27 -44 27 -1 8 -1 8 25 14 25 14 20 10 20
10 50 31 50 30 25 12 25 13 110 65 110 65 25 13 25 12 35 22 35 21 45 24 45
24 80 48 80 49 62 33 63 32 17 19 16 18 16 0 16 0 30 24 30 24 50 -26 50 -26
63 -40z m-2059 -129 l46 -33 63 -38 62 -37 0 -38 0 -39 26 -58 26 -59 20 -45
21 -45 26 -34 26 -34 56 -56 55 -56 67 -34 66 -34 49 5 49 5 41 29 41 29 15
33 16 33 0 20 0 20 16 6 15 6 22 -20 22 -20 55 -29 55 -29 33 -24 34 -25 -3
-699 -4 -698 -7 -12 -7 -11 -48 25 -48 25 -50 29 -50 28 -18 16 -18 15 1 323
2 322 -7 11 -7 11 -21 10 -22 10 -55 34 -55 34 -23 10 -22 11 -55 35 -55 35
-32 15 -33 15 -20 12 -19 13 -38 23 -38 22 -13 0 -14 0 -18 20 -18 20 -13 0
-13 0 -11 -19 -10 -20 0 -295 0 -296 -8 0 -7 0 -37 25 -37 25 -8 0 -9 0 -62
45 -62 45 0 710 0 710 11 0 12 0 46 -33z m2152 -54 l0 -78 -1 -623 -1 -623 -5
-13 -5 -13 -86 -49 -85 -49 -43 -25 -42 -25 -64 -38 -64 -38 -15 -10 -15 -9
-70 -41 -70 -40 -50 -30 -50 -30 -25 -12 -25 -12 -10 -8 -10 -8 -40 -22 -41
-22 -109 -63 -110 -63 -17 -12 -17 -12 -9 10 -8 10 4 705 4 706 57 35 56 36
69 39 70 39 55 32 56 32 37 20 37 20 43 28 43 27 35 19 35 19 35 19 35 19 20
13 20 12 32 22 32 23 14 0 15 0 11 14 12 15 39 20 39 20 23 13 23 13 17 13 17
14 33 18 33 18 18 1 17 1 1 -77z m-1861 -948 l58 -35 6 0 7 0 33 -25 33 -25 8
0 7 0 77 -45 76 -45 15 -10 15 -10 31 -14 32 -14 6 -10 6 -10 -38 -24 -37 -25
-69 -39 -69 -39 -66 -36 -66 -35 -69 -42 -69 -42 -3 2 -3 3 -1 90 -1 90 0 188
1 187 11 0 11 0 58 -35z M1489 633 l-21 -48 -14 -28 -14 -29 0 -16 0 -17 -31
-75 -31 -75 -15 -31 -14 -31 3 -34 3 -34 19 0 19 0 20 35 20 35 6 30 7 30 89
3 90 3 12 -17 13 -18 0 -27 0 -26 21 -27 21 -27 22 3 21 3 3 18 4 18 -16 34
-16 33 0 20 0 21 -9 6 -9 5 -22 68 -21 67 -15 27 -14 26 0 17 0 17 -14 26 -14
27 -6 18 -5 17 -36 0 -35 0 -21 -47z m83 -121 l18 -57 0 -17 0 -18 -49 0 -50
0 -5 8 -5 9 21 59 21 59 10 13 10 12 5 -5 6 -6 18 -57z"/>
</g>
</svg>