<svg version="1.0" xmlns="http://www.w3.org/2000/svg"
 width="1158" height="1182" viewBox="0 0 1158.000000 1182.000000"
 preserveAspectRatio="xMidYMid meet">
<g transform="translate(0.000000,1182.000000) scale(0.100000,-0.100000)"
fill="#333" stroke="none">
<path d="M6050 9801 l-52 -49 -84 -43 -84 -44 -38 -20 -38 -20 -29 -22 -28
-23 -17 0 -17 0 -36 -27 -35 -28 -33 -20 -33 -20 -31 -19 -30 -18 -8 -14 -8
-14 -12 0 -13 0 -39 -21 -40 -21 -85 -45 -85 -44 -35 -24 -35 -24 -24 -17 -24
-17 -81 -42 -81 -42 -69 -47 -69 -46 -17 0 -17 0 -17 -19 -18 -19 -86 -43 -87
-43 -47 -29 -48 -30 0 -9 0 -9 -42 -20 -43 -20 -70 -39 -70 -39 -25 -11 -25
-10 -15 -10 -15 -10 -36 -19 -35 -20 -13 -15 -13 -16 -13 0 -13 0 -30 -25 -29
-25 -44 -20 -44 -21 -50 -28 -50 -27 -64 -42 -64 -42 -12 0 -13 0 -12 -15 -12
-14 -62 -34 -62 -34 -24 -8 -25 -8 -26 -21 -26 -21 -33 -20 -33 -20 -36 -22
-36 -23 -50 -24 -51 -24 -13 -16 -13 -15 -33 -7 -33 -6 -23 -24 -22 -24 -10 0
-10 0 -81 -54 -81 -54 -26 -13 -26 -14 -42 -28 -42 -28 -9 -25 -10 -25 0
-2260 0 -2260 14 -34 15 -35 9 0 9 0 38 -30 38 -30 18 0 17 0 29 -24 28 -23
25 -8 25 -7 40 -26 40 -25 35 -22 35 -22 25 -16 25 -17 52 -34 52 -35 38 -19
38 -20 49 -26 49 -26 16 -13 16 -14 32 -12 32 -13 17 -19 17 -19 18 0 18 0 23
10 23 11 55 34 55 34 41 20 42 19 6 10 6 11 36 11 36 12 67 50 66 50 22 8 21
9 6 10 7 10 42 21 42 21 60 33 60 34 33 16 33 15 26 21 26 20 17 0 17 0 17
-19 18 -19 72 -36 72 -36 16 0 16 0 13 -16 13 -16 55 -35 54 -35 16 -6 16 -5
79 -54 79 -53 12 0 12 0 24 -19 24 -19 41 -12 41 -12 43 -41 43 -41 -7 -486
-8 -485 22 -28 22 -28 41 -20 42 -21 20 -18 20 -18 37 -11 38 -12 6 -11 7 -10
51 -25 51 -25 41 -21 42 -22 18 -17 19 -16 30 -8 30 -7 25 -17 25 -17 45 -29
45 -29 70 -36 70 -35 35 -22 35 -22 71 0 71 0 28 22 28 21 31 17 31 17 45 25
45 25 48 34 49 34 41 27 42 28 15 6 15 7 40 18 40 18 25 15 25 15 75 36 75 36
63 44 63 45 26 6 27 7 34 24 35 23 10 0 10 0 33 25 33 25 9 0 9 0 36 28 35 27
29 17 28 17 15 10 15 10 80 37 80 37 52 39 52 38 28 12 28 12 30 22 30 21 29
7 29 7 24 19 24 19 27 6 28 6 28 24 28 24 21 7 20 6 59 45 58 45 38 10 37 10
24 19 24 19 13 0 12 0 30 25 31 26 30 10 31 11 0 10 0 9 44 19 43 20 12 14 12
14 64 31 64 31 9 0 8 0 40 30 39 29 11 1 11 0 18 20 18 19 21 7 21 6 31 23 30
23 35 16 34 16 15 9 15 10 45 21 45 21 41 22 42 22 18 16 19 17 78 43 77 44
48 27 47 27 40 23 41 23 34 20 34 20 28 27 29 27 -5 2283 -4 2283 -7 17 -7 18
-40 12 -39 12 -10 17 -9 17 -31 7 -31 7 -18 18 -18 18 -24 13 -23 12 -12 17
-12 17 -45 17 -46 18 0 8 0 8 -32 13 -33 12 -25 17 -25 17 -37 12 -36 12 -13
15 -12 15 -32 13 -31 14 -54 38 -54 38 -65 33 -65 33 -27 0 -28 0 -47 -25 -47
-25 -14 0 -15 0 -26 -20 -27 -21 -52 -34 -53 -35 -8 0 -9 0 -18 -20 -17 -19
-37 -12 -36 -12 -25 -17 -25 -17 -25 -8 -25 -7 -40 -26 -40 -25 -25 -19 -25
-18 -37 -20 -38 -20 0 -10 0 -9 -39 -11 -39 -10 -12 -15 -13 -15 -73 -35 -73
-35 -5 0 -4 0 -53 -32 -54 -33 -25 -18 -25 -18 -48 -30 -47 -31 -38 -5 -37 -5
-46 38 -46 39 -22 20 -22 20 -27 28 -26 27 -9 0 -8 0 -47 32 -47 31 -65 56
-64 56 -31 34 -30 34 -10 17 -10 17 -47 54 -48 54 -50 68 -50 68 -15 27 -16
27 -27 41 -27 41 -29 44 -29 44 -13 8 -12 7 -13 38 -12 37 -18 24 -19 24 0 10
0 10 -31 66 -30 66 -25 46 -24 47 0 25 0 25 -24 29 -24 29 -7 39 -7 40 -20 35
-20 35 -15 89 -14 89 -11 21 -12 21 -18 180 -17 180 -13 45 -13 45 -8 13 -8
12 -33 0 -34 0 -52 -49z m30 -213 l20 -42 0 -30 0 -31 14 -80 15 -80 26 -103
26 -104 19 -26 20 -27 10 -52 9 -53 16 -29 15 -30 11 -49 10 -50 25 -33 24
-33 0 -11 0 -12 20 -18 19 -17 12 -37 12 -36 13 -15 13 -16 16 -43 15 -42 20
-26 20 -26 0 -12 0 -12 29 -39 30 -39 20 -25 21 -25 25 -35 25 -35 12 -25 12
-25 46 -57 45 -56 60 -78 60 -78 60 -59 59 -60 33 -13 32 -14 73 -71 73 -71
31 -13 31 -13 22 -27 22 -28 -4 -10 -3 -11 -20 -10 -19 -11 -32 -22 -32 -23
-9 0 -10 0 -13 -17 -14 -16 -50 -24 -50 -24 -25 -14 -25 -15 -16 0 -16 0 -39
-29 -39 -30 -25 -19 -26 -20 -36 -10 -37 -10 -30 -21 -29 -21 -10 0 -9 0 -35
-24 -35 -24 -35 -11 -36 -12 -17 -19 -18 -20 -13 0 -12 0 -30 -25 -30 -25 -34
-16 -33 -16 -60 -34 -60 -34 -35 -16 -35 -16 -20 -18 -20 -18 -32 -7 -33 -7
-12 -16 -13 -17 -40 -27 -40 -27 -35 -15 -35 -16 -55 -35 -55 -35 -50 -25 -50
-26 -46 -27 -47 -27 -43 -24 -44 -23 -15 -13 -15 -13 -25 -7 -25 -8 -25 -19
-25 -19 -35 -24 -35 -24 -35 -20 -35 -20 -27 -23 -28 -23 -5 -149 -5 -149 -20
-33 -20 -32 -11 -58 -11 -59 -24 -51 -24 -51 0 -10 0 -10 -19 -17 -19 -17 -12
-28 -11 -28 -32 -16 -32 -17 -45 -35 -45 -35 -35 -15 -35 -15 -15 -10 -15 -10
-20 -9 -20 -8 -95 -7 -95 -7 -82 10 -83 10 -44 21 -45 20 -23 0 -23 0 -50 30
-50 30 -24 0 -24 0 -51 32 -51 33 -65 53 -65 54 -25 19 -25 19 -42 33 -42 32
-37 25 -38 25 -95 98 -96 98 -33 42 -33 42 -48 60 -48 60 -19 33 -19 33 -25
43 -25 43 -27 40 -27 41 -10 7 -10 6 -16 51 -15 51 -14 16 -14 16 -11 41 -11
41 -19 17 -20 18 -6 28 -6 29 -15 12 -14 11 -14 47 -14 47 -21 34 -20 34 -7
46 -7 45 -18 36 -18 36 -10 79 -10 79 -20 40 -19 40 -11 160 -10 160 15 23 15
23 27 9 27 10 15 10 15 10 50 25 50 25 43 26 42 25 0 10 0 9 33 13 33 14 16
17 17 16 43 20 43 20 96 53 97 52 58 40 59 41 28 12 27 12 0 9 0 9 50 17 50
17 6 10 6 10 42 19 41 19 77 48 78 48 22 21 23 22 29 7 30 7 34 24 35 23 22 0
22 0 19 21 19 21 43 29 44 29 34 15 34 14 0 9 0 10 43 17 42 17 15 13 15 13
25 7 25 7 44 27 43 26 23 23 22 22 10 0 10 0 39 28 39 29 29 7 28 7 27 18 26
18 53 31 53 32 8 0 8 0 38 30 38 30 13 0 14 0 19 19 20 20 78 37 78 38 39 28
39 28 14 0 14 0 6 16 6 15 51 25 51 24 50 30 50 30 40 21 40 20 46 27 46 27
33 20 33 20 27 23 28 22 10 0 10 0 29 24 28 23 15 6 15 5 22 1 23 1 20 -42z
m2735 -1439 l48 -21 53 -34 52 -33 54 -26 53 -26 46 -27 47 -27 42 -30 43 -30
41 -28 41 -28 53 -25 53 -26 11 -24 11 -23 -13 -16 -12 -15 -12 0 -11 0 -45
-30 -45 -29 -26 -20 -26 -20 -29 -7 -29 -7 -28 -24 -29 -23 -16 0 -16 0 -35
-23 -36 -24 -65 -38 -65 -38 -20 -17 -20 -16 -85 -39 -85 -39 -28 -23 -29 -23
-10 0 -10 0 -30 -25 -30 -25 -13 0 -13 0 -13 -17 -14 -16 -90 -44 -90 -43 -38
-22 -39 -23 -26 -20 -27 -20 -37 -18 -38 -17 0 -9 0 -9 -34 -12 -35 -11 -23
-18 -23 -19 -38 -10 -37 -10 -31 -26 -31 -26 -13 0 -13 0 -13 -16 -13 -15 -39
-22 -38 -22 -47 -27 -47 -28 -53 -26 -52 -27 -6 -8 -5 -8 -42 -21 -42 -21 -34
-19 -33 -19 -22 -19 -21 -20 -25 -7 -25 -8 -25 -17 -25 -18 -42 -11 -42 -12
-8 -13 -8 -13 -54 -36 -53 -37 -13 0 -13 0 -30 -25 -30 -25 -10 0 -10 0 -29
-24 -29 -24 -94 -37 -95 -37 -20 -19 -20 -20 -45 -29 -45 -30 -12 0 -11 0 -29
-23 -28 -23 -89 -43 -88 -43 -42 -29 -41 -30 -24 -16 -23 -17 -47 0 -47 0 -50
34 -49 33 -26 18 -26 17 -40 11 -40 11 -17 19 -18 20 -28 6 -28 6 -16 18 -17
19 -44 12 -44 12 -17 19 -17 19 -12 0 -13 0 -13 17 -14 16 -55 24 -55 25 -17
15 -18 16 0 18 0 19 33 15 32 15 40 25 40 24 11 15 11 15 44 21 44 20 85 46
85 46 20 18 20 18 35 16 35 17 35 18 35 19 19 21 19 21 10 0 11 0 75 37 76 37
28 23 29 23 12 0 13 0 18 20 18 19 21 7 21 6 60 36 60 36 15 12 15 11 36 12
37 12 17 19 18 20 13 0 13 0 34 30 35 30 8 0 7 0 61 29 61 29 15 6 15 6 15 9
15 10 45 21 45 20 42 27 41 28 62 42 61 42 35 10 34 9 26 21 27 21 12 0 13 0
11 14 12 14 52 26 52 26 45 30 45 29 60 34 60 34 36 12 37 12 17 19 18 20 14
0 14 0 22 24 22 23 37 12 36 12 12 14 12 14 35 12 36 11 35 24 35 24 12 0 13
0 11 14 12 14 45 21 44 21 0 10 0 9 43 21 42 21 54 29 54 29 16 13 16 13 55
27 55 26 35 16 35 16 44 25 44 25 2 0 2 0 48 -21z m749 -545 l6 -16 0 -2152 0
-2152 -32 -25 -33 -24 -65 -42 -65 -42 -25 -19 -25 -19 -32 -7 -32 -7 -23 -19
-23 -18 -35 -16 -35 -16 -86 -53 -86 -52 -32 -20 -33 -20 -35 -27 -36 -28 -21
0 -22 0 -34 -25 -34 -25 -9 0 -9 0 -45 -27 -44 -28 -79 -51 -78 -51 -79 -38
-78 -37 -28 -24 -29 -24 -12 0 -13 0 -23 -24 -23 -25 -28 -6 -28 -6 -13 -16
-13 -16 -40 -18 -40 -18 -27 -16 -28 -15 -27 -16 -28 -15 -42 -20 -42 -20 -6
-9 -6 -10 -52 -33 -52 -33 -34 -12 -35 -12 -16 -15 -16 -14 -43 -16 -42 -15
-26 -20 -26 -20 -7 0 -8 0 -53 -32 -54 -33 -23 -23 -22 -22 -23 0 -23 0 -34
-25 -34 -25 -12 0 -11 0 -38 -30 -38 -30 -9 0 -10 0 -30 -25 -30 -25 -13 0
-13 0 -29 -24 -28 -23 -65 -32 -65 -31 -20 0 -20 0 -89 -60 -89 -60 -8 0 -7 0
-63 -40 -64 -40 -47 -22 -48 -21 0 -8 0 -9 -37 -15 -38 -16 -21 -20 -22 -21
-19 4 -18 3 2 405 3 405 5 1773 5 1772 48 35 47 34 23 6 24 6 36 23 37 23 74
49 74 49 11 7 11 8 35 15 35 16 30 16 30 16 22 19 21 20 41 9 42 9 59 41 60
41 6 9 5 9 16 0 16 0 73 35 73 35 6 10 6 10 53 35 53 35 11 0 10 0 32 27 32
27 32 17 31 18 25 12 25 12 70 34 70 34 35 24 35 24 34 26 34 25 17 0 17 0 38
30 38 30 11 0 12 0 34 25 34 25 15 0 15 0 69 48 69 47 17 10 16 10 35 21 35
22 25 7 25 8 40 25 40 25 35 23 35 23 28 7 27 6 13 17 12 16 32 22 31 22 89
41 88 41 20 18 20 19 37 15 38 16 12 11 13 10 35 25 35 25 35 16 35 15 75 37
75 36 47 32 46 33 84 43 83 43 29 20 30 20 30 11 31 12 6 1 7 1 6 -16z m-6800
-658 l6 -34 20 -5 20 -5 10 -27 10 -26 0 -31 0 -31 22 -36 23 -36 17 -30 17
-30 26 -50 26 -50 29 -50 29 -50 16 -35 15 -35 10 -15 10 -15 21 -42 20 -42 9
-6 10 -6 20 -37 19 -37 41 -45 42 -44 10 -19 10 -20 32 -41 33 -41 44 -50 44
-50 56 -56 56 -57 39 -26 39 -26 37 -28 37 -27 48 -43 48 -43 55 -43 55 -43
44 -29 44 -29 21 -12 21 -13 21 0 21 0 26 -21 27 -20 67 -20 68 -20 40 -9 40
-9 101 -16 102 -15 13 5 14 4 111 10 110 9 70 32 69 33 5 7 5 7 42 26 41 26
52 52 52 52 19 43 18 44 10 0 9 0 13 38 12 37 17 25 18 25 11 40 11 40 19 38
19 38 7 95 7 96 14 5 13 5 47 -21 47 -21 11 0 11 -1 39 -29 40 -30 11 0 12 0
18 -20 18 -20 36 -6 36 -6 24 -17 24 -16 46 -27 46 -27 40 -19 40 -19 14 -17
13 -16 9 0 8 0 23 -10 23 -10 40 -23 40 -24 0 -2176 -1 -2176 -7 -7 -7 -7 -70
28 -70 28 -16 18 -16 18 -37 12 -36 12 -16 13 -15 14 -35 11 -34 12 -25 17
-25 17 -25 8 -25 7 -16 15 -16 14 -54 32 -54 32 -76 38 -77 38 -6 30 -6 31 7
472 6 471 -11 21 -11 20 -73 37 -73 36 -40 31 -40 30 -41 19 -42 19 -7 12 -7
12 -42 19 -41 20 -50 29 -50 30 -41 19 -42 19 -7 11 -6 11 -47 25 -47 25 -20
13 -20 12 -25 16 -25 17 -67 36 -67 36 -13 0 -14 0 -54 34 -55 34 -18 17 -18
16 -42 20 -42 20 -50 28 -50 28 -36 20 -35 19 -30 21 -29 20 -21 7 -21 7 -18
19 -18 20 -12 0 -12 0 -38 30 -38 30 -17 0 -17 0 -35 23 -34 24 -36 6 -36 5
-19 -13 -18 -13 -3 -443 -3 -444 -8 -8 -9 -9 -38 20 -39 20 -83 56 -82 56 -9
0 -9 0 -29 24 -28 24 -35 17 -35 16 -41 23 -41 22 -30 22 -31 22 -9 0 -9 0
-53 40 -54 41 -31 26 -31 26 -5 321 -5 321 3 1523 2 1522 9 0 9 0 6 -34z m892
-3375 l9 -9 50 -27 50 -27 25 -14 25 -14 16 0 17 0 13 -16 13 -15 38 -20 39
-20 17 -15 17 -15 40 -26 40 -26 30 -10 30 -10 25 -17 25 -16 28 -12 27 -12 0
-14 0 -14 -35 -31 -36 -31 -14 0 -13 0 -29 -23 -28 -24 -33 -11 -33 -11 -26
-21 -26 -20 -13 0 -12 0 -29 -23 -28 -23 -70 -43 -70 -42 -50 -35 -50 -34 -16
0 -17 0 -6 16 -6 16 0 326 0 327 6 23 6 22 22 0 22 0 10 -9z"/>
</g>
</svg>