<svg version="1.0" xmlns="http://www.w3.org/2000/svg"
 width="1932" height="1734" viewBox="0 0 1932.000000 1734.000000"
 preserveAspectRatio="xMidYMid meet">
<g transform="translate(0.000000,1734.000000) scale(0.100000,-0.100000)"
fill="#333" stroke="none">
<path d="M12667 16834 l-6 -7 -138 -10 -138 -10 -150 -3 -150 -2 -1964 -2
-1964 -2 -13 -5 -13 -5 -21 -34 -20 -35 0 -499 0 -499 22 -12 22 -12 977 -1
978 -1 12 -12 12 -12 0 -198 0 -198 -7 -695 -6 -695 -5 -31 -6 -32 -12 -10
-13 -11 -954 -2 -955 -1 -33 -14 -32 -13 -6 -15 -5 -14 -2 -2474 -2 -2473 -9
-18 -8 -17 -23 -6 -22 -5 -1944 -2 -1944 -2 -22 -13 -23 -13 -5 -22 -6 -22 3
-497 3 -497 18 -18 18 -18 267 -5 267 -5 2715 -3 2714 -3 13 -11 14 -11 -4
-891 -3 -891 -8 -23 -9 -23 -28 -14 -28 -15 -955 0 -954 0 -17 -6 -16 -6 -14
-29 -15 -28 0 -453 0 -453 -10 -15 -9 -15 -128 -5 -128 -5 -54 8 -54 8 -31
-10 -31 -10 -1240 5 -1240 4 -1725 2 -1725 2 -70 -2 -70 -2 -15 0 -15 1 -205
-6 -205 -5 -22 -5 -22 -5 -6 -33 -6 -32 3 -2032 3 -2032 16 -17 17 -16 5785 0
5786 1 30 15 30 16 15 22 16 22 0 2029 0 2028 -10 20 -11 19 -31 16 -30 16
-107 14 -106 14 -41 0 -41 0 -44 16 -44 15 -73 15 -74 14 -26 19 -27 19 -68
35 -67 36 -25 18 -26 18 -42 32 -42 33 -11 0 -11 0 -90 88 -90 87 -60 70 -60
71 -8 24 -7 25 -18 20 -18 20 -7 25 -7 25 -23 25 -23 25 -16 35 -17 35 -14 25
-15 25 0 24 0 25 -19 70 -20 71 -10 160 -10 161 9 144 10 145 20 57 20 58 0
23 0 24 24 47 24 48 6 33 7 33 29 38 29 39 19 25 20 26 10 37 10 37 52 62 51
61 24 19 25 19 0 14 0 13 38 36 37 37 59 42 60 42 25 28 25 27 11 0 11 0 54
35 55 34 20 16 20 15 40 11 40 11 12 10 13 10 69 13 69 14 43 21 43 22 115 10
116 9 52 15 52 14 20 26 21 27 0 439 -1 440 13 15 13 16 30 11 30 11 520 -8
520 -8 1085 -5 1085 -5 80 10 80 11 1087 1 1086 1 49 9 48 9 13 17 12 17 0
2031 0 2031 -13 18 -14 19 -2834 0 -2834 -1 -17 9 -18 9 -11 22 -11 21 -2 451
-1 451 -14 27 -14 27 -16 7 -16 7 -95 8 -95 8 -50 10 -50 10 -65 16 -65 17
-90 29 -90 28 -60 31 -60 31 -40 30 -40 30 -80 53 -80 54 -55 63 -55 64 -47
46 -48 45 0 11 0 10 -20 26 -21 26 -15 50 -15 50 -8 6 -9 5 -36 71 -36 71 0
11 0 12 -25 54 -26 54 -9 61 -9 61 -16 94 -17 95 6 90 6 91 9 85 9 85 12 65
11 65 19 30 19 31 7 44 7 44 24 34 23 35 0 13 0 12 23 29 23 28 38 77 39 76
74 73 73 72 0 9 0 8 44 42 45 43 33 20 32 20 31 18 30 19 45 37 45 38 33 11
33 11 26 21 26 20 11 0 11 0 36 24 35 24 50 7 49 7 74 24 74 24 129 0 129 0
34 14 34 15 7 25 6 26 -6 25 -6 25 -30 15 -29 15 -24 0 -24 0 -6 -6z m-707
-170 l0 -6 -32 -31 -31 -32 -22 -15 -22 -15 -51 -33 -52 -34 0 -8 0 -8 -77
-61 -78 -61 -38 -48 -37 -47 -48 -60 -47 -60 -20 -29 -20 -29 -30 -54 -30 -53
-32 -59 -31 -58 -7 -49 -7 -49 -19 -31 -18 -30 -12 -55 -11 -54 -20 -65 -21
-65 0 -232 1 -233 20 -38 19 -38 12 -54 12 -55 16 -25 17 -25 7 -59 7 -59 21
-28 21 -29 7 -32 6 -33 17 -20 18 -20 12 -41 12 -41 54 -59 54 -59 15 -17 14
-17 15 -29 15 -29 49 -42 50 -41 10 0 10 0 82 -80 82 -80 9 0 9 0 83 -40 84
-40 13 -15 12 -14 37 -7 36 -6 40 -23 40 -23 45 -7 45 -7 45 -23 45 -22 119
-6 120 -6 15 -16 16 -16 3 -419 3 -420 -11 -20 -10 -19 -2209 -1 -2210 0 -6
10 -6 10 1 413 0 412 17 13 17 12 956 0 957 0 31 11 31 10 10 30 10 29 7 1004
7 1005 -17 26 -18 27 -975 -3 -976 -3 -19 24 -20 24 8 26 7 25 6 370 6 370 8
13 8 12 1855 0 1854 0 0 -6z m664 -3993 l16 -14 1 -1006 2 -1006 -2 -75 -2
-75 -5 -844 -5 -845 -12 -25 -12 -26 -2194 -3 -2193 -2 -14 11 -14 11 0 1944
0 1943 19 10 19 11 1778 0 1777 0 3 3 2 2 410 0 409 0 17 -14z m1005 -5 l21
-19 0 -1913 0 -1913 -22 -21 -22 -20 -10 -1 -11 -1 -105 2 -106 2 -56 -17 -56
-16 -60 15 -59 16 -54 -14 -54 -14 -112 2 -113 1 -26 27 -27 26 1 1874 2 1873
0 52 0 52 28 15 27 16 396 -3 397 -2 21 -19z m4742 7 l11 -11 -1 -1928 -2
-1928 -11 -13 -10 -13 -802 0 -801 0 -49 -15 -48 -15 -42 11 -41 11 -32 5 -32
5 -63 -16 -64 -16 -1237 0 -1238 0 -62 21 -62 20 -12 17 -13 16 0 1913 0 1913
18 18 17 17 2282 0 2282 0 12 -12z m-5760 -4042 l19 -23 0 -392 0 -392 -15
-21 -15 -21 -42 -6 -43 -6 -81 -10 -80 -9 -45 -16 -44 -17 -40 -13 -40 -14
-36 -6 -36 -5 -23 -20 -22 -19 -22 -7 -21 -7 -75 -42 -75 -42 -25 -8 -25 -7
-25 -23 -25 -24 -55 -54 -55 -54 -24 -8 -24 -7 -59 -61 -59 -61 -19 -37 -19
-37 -45 -44 -44 -43 -13 -42 -12 -43 -19 -16 -18 -17 0 -12 0 -12 -30 -44 -30
-44 0 -20 0 -20 -24 -51 -24 -51 -7 -44 -7 -44 -20 -35 -20 -35 -9 -110 -9
-110 -14 -54 -15 -54 4 -7 4 -7 11 -89 11 -89 9 -118 8 -117 21 -40 21 -41 10
-45 10 -45 65 -132 65 -133 67 -81 68 -82 25 -36 25 -36 35 -35 35 -34 12 0
11 0 83 -80 82 -80 12 0 12 0 38 -30 38 -30 17 0 17 0 26 -30 27 -30 11 0 11
0 -4 -10 -3 -10 -1785 -4 -1785 -5 -113 -3 -114 -3 -4 7 -5 8 0 416 1 417 11
13 11 14 965 0 964 0 28 15 29 14 13 33 13 33 3 1005 4 1005 -13 23 -13 23
-270 4 -270 3 -20 1 -20 0 -701 -5 -700 -5 -12 14 -12 14 2 414 3 413 30 8 31
7 1909 5 1910 5 48 1 47 0 48 -1 47 0 135 8 135 8 29 0 29 -1 18 -23z m-7481
8 l35 -11 1432 2 1432 1 21 -11 21 -11 -3 -408 -3 -408 -14 -17 -14 -16 -1431
4 -1431 5 -75 1 -75 1 -386 -6 -385 -6 -23 18 -23 19 1 392 2 393 6 15 6 16
24 9 24 9 377 1 377 0 20 9 20 9 15 0 15 1 35 -11z m-2094 -4043 l19 -14 3
-1913 2 -1912 -16 -18 -16 -18 -42 -6 -41 -5 -525 -5 -525 -5 -40 -1 -40 0
-80 0 -80 0 -220 -2 -220 -3 -10 -3 -10 -3 -12 1 -12 1 -10 38 -11 37 0 1880
0 1880 10 34 10 35 12 8 13 8 911 0 910 0 20 -14z m2008 -2 l6 -16 0 -1916 0
-1917 -10 -15 -9 -15 -900 -3 -900 -3 -35 15 -35 15 -6 23 -6 23 3 1893 3
1894 24 19 23 19 918 0 918 0 6 -16z m1991 2 l25 -17 -4 -1487 -3 -1487 -7
-110 -6 -110 -3 -331 -2 -331 -14 -16 -13 -17 -894 0 -893 0 -28 24 -28 24 4
1924 3 1923 8 10 8 10 911 4 911 3 25 -16z m995 -6 l20 -20 0 -1914 0 -1913
-21 -27 -20 -26 -399 0 -400 0 -15 23 -15 24 0 1923 0 1923 11 13 11 14 404 0
404 0 20 -20z m4578 8 l12 -12 0 -1922 0 -1922 -17 -13 -16 -14 -356 -5 -356
-5 -45 7 -45 6 -33 -15 -33 -16 -52 11 -52 10 -105 -4 -105 -5 -382 0 -383 0
-37 0 -38 -1 -1187 -4 -1186 -4 -21 26 -21 27 0 1196 0 1196 11 40 10 40 6
685 5 685 10 13 10 12 2197 0 2197 0 12 -12z"/>
</g>
</svg>