<svg version="1.0" xmlns="http://www.w3.org/2000/svg"
 width="408" height="462" viewBox="0 0 408.000000 462.000000"
 preserveAspectRatio="xMidYMid meet">
<g transform="translate(0.000000,462.000000) scale(0.100000,-0.100000)"
fill="#333" stroke="none">
<path d="M1735 3681 l-10 -9 -50 -27 -50 -28 -45 -25 -45 -25 -43 -28 -43 -29
-11 0 -11 0 -33 -25 -33 -25 -8 0 -9 0 -68 -45 -69 -45 -12 0 -11 0 -40 -29
-40 -30 -50 -26 -49 -26 -15 -9 -15 -10 -150 -87 -150 -88 -35 -19 -35 -20
-40 -25 -40 -26 -20 -10 -20 -11 -3 -257 -2 -258 25 -33 25 -33 0 -7 0 -6 47
-83 47 -82 42 -71 42 -71 6 -21 7 -22 9 0 8 0 11 -27 11 -28 30 -50 29 -50 13
-25 13 -25 19 -30 19 -30 16 -25 16 -25 10 -25 10 -25 56 -95 55 -95 54 -95
53 -95 32 -50 32 -50 19 -40 18 -40 33 -52 33 -52 12 -7 13 -8 360 -7 360 -8
140 -10 140 -10 295 -2 295 -2 3 739 2 739 -16 40 -16 40 -9 20 -8 20 -36 95
-36 95 -13 25 -13 25 -7 28 -7 28 -24 54 -25 54 0 13 0 14 -8 10 -9 9 -23 65
-23 65 -14 20 -13 19 0 17 0 17 -38 29 -37 28 -20 12 -20 13 -42 21 -42 21
-12 14 -11 14 -14 0 -13 0 -13 13 -13 12 -120 69 -120 69 -30 15 -30 15 -31
24 -31 23 -6 0 -7 0 -101 60 -101 60 -22 0 -22 0 -9 -9z m116 -79 l44 -29 45
-26 45 -27 42 -21 42 -21 12 -14 11 -14 10 0 10 0 75 -45 74 -45 6 0 6 0 66
-42 66 -43 47 -24 46 -25 23 -17 22 -16 -5 -14 -5 -14 -157 -90 -157 -90 -32
-19 -32 -19 -45 -24 -45 -24 -35 -21 -35 -21 -30 -16 -30 -17 -45 -28 -44 -29
-46 -24 -45 -24 -15 -9 -15 -9 -80 -46 -80 -46 -20 -11 -20 -12 -93 -53 -92
-54 -101 57 -100 57 -5 9 -5 8 -18 0 -19 0 -12 15 -12 15 -27 13 -26 14 -43
22 -42 23 -5 8 -5 8 -42 22 -43 23 -20 11 -20 12 -40 25 -40 26 -45 27 -45 26
-27 12 -28 12 0 16 0 16 66 34 66 35 4 7 5 8 32 15 32 15 50 30 50 31 22 9 21
9 6 9 6 10 62 32 63 32 15 13 15 12 45 23 45 23 20 11 20 12 40 25 40 26 45
25 45 25 40 23 40 23 40 21 40 22 40 27 40 27 8 0 7 0 43 28 42 27 15 7 15 7
26 -4 27 -4 43 -29z m772 -517 l19 -50 13 -30 12 -30 18 -45 18 -45 13 -32 14
-31 0 -9 0 -8 25 -50 24 -50 1 -13 0 -13 18 -42 19 -42 27 -66 28 -67 -4 -16
-3 -17 -240 1 -240 1 -95 10 -95 10 -220 9 -220 9 -157 1 -158 0 0 9 0 9 43
21 42 21 20 13 20 12 30 20 30 21 25 12 25 13 20 12 20 13 60 32 60 32 30 19
30 18 170 98 170 98 45 24 45 25 56 34 57 34 10 0 10 0 4 9 3 9 55 30 55 31
15 -2 14 -2 19 -50z m-2015 -229 l37 -23 200 -117 200 -117 15 -9 15 -9 74
-43 74 -43 46 -26 46 -26 3 -668 2 -669 -9 -9 -9 -9 -32 63 -32 64 -79 131
-79 132 0 6 0 6 -24 38 -23 37 -65 115 -64 115 -28 50 -28 50 -27 45 -26 45
-12 20 -12 20 -32 60 -31 60 -19 26 -19 26 -10 24 -10 24 -30 50 -30 50 -28
50 -27 50 -5 223 -5 223 23 -6 24 -6 36 -23z m1357 -446 l200 -10 205 -5 205
-6 105 -4 105 -5 58 -6 58 -7 -3 -476 -2 -476 -4 -223 -4 -224 -166 5 -167 5
-493 11 -494 11 -11 7 -12 8 -90 5 -90 5 -3 690 -2 690 4 10 3 10 199 -2 199
-3 200 -10z"/>
</g>
</svg>