<svg version="1.0" xmlns="http://www.w3.org/2000/svg"
 width="435" height="600" viewBox="0 0 435.000000 600.000000"
 preserveAspectRatio="xMidYMid meet">
<g transform="translate(0.000000,600.000000) scale(0.100000,-0.100000)"
fill="currentColor" stroke="none">
<path d="M184 5805 l-6 -15 6 -15 6 -16 352 7 353 7 1525 1 1525 1 0 -1780 0
-1780 -5 -1025 -5 -1025 17 -3 18 -3 5 1028 5 1028 3 1800 2 1800 -1898 3
-1898 2 -5 -15z M1715 4490 l-18 -20 -12 0 -12 0 -69 -45 -68 -45 -9 0 -8 0
-32 -24 -32 -24 -22 -7 -23 -6 0 -9 0 -9 -22 -7 -23 -7 -31 -23 -31 -24 -11 0
-11 0 -14 -15 -15 -14 -63 -36 -64 -37 -72 -41 -71 -42 -19 -16 -18 -17 -20
-4 -19 -3 -8 -35 -7 -35 -22 -110 -21 -110 -9 -75 -9 -75 -10 -25 -9 -25 -6
-50 -7 -50 -24 -121 -24 -121 0 -46 0 -47 -14 -37 -15 -38 -10 -70 -11 -70
-15 -80 -16 -80 -9 -75 -10 -75 -9 -25 -10 -25 -11 -80 -11 -80 -10 -55 -9
-55 1 -250 0 -250 12 -12 13 -13 194 10 195 10 215 10 215 10 325 11 325 10
49 7 49 7 33 45 33 45 0 7 1 7 53 90 52 90 16 29 15 30 42 70 42 70 0 7 0 6
23 32 22 32 12 20 13 20 18 36 18 35 51 85 50 84 64 113 64 112 15 27 15 27
68 113 67 114 0 6 0 5 35 58 35 58 0 252 0 252 -22 19 -23 18 -8 1 -7 0 -43
27 -42 26 -73 39 -74 39 -64 40 -64 39 -14 0 -14 0 -12 15 -12 15 -27 13 -26
14 -50 27 -50 27 -20 12 -19 12 -38 23 -38 22 -68 36 -67 37 -43 28 -43 29
-10 0 -10 0 -33 25 -33 25 -11 0 -11 0 -13 13 -13 12 -25 12 -25 13 -40 22
-40 23 -25 18 -24 17 -17 0 -16 0 -18 -20z m64 -44 l12 -14 32 -17 32 -16 55
-31 55 -30 35 -19 35 -20 40 -24 40 -25 25 -12 25 -12 15 -12 15 -11 70 -38
70 -38 37 -24 38 -23 6 0 6 0 82 -49 81 -49 67 -35 67 -35 29 -21 30 -21 15 0
16 0 6 -10 6 -10 76 -42 76 -41 -19 -14 -19 -15 -55 -29 -55 -30 -70 -44 -70
-44 -25 -13 -25 -13 -114 -67 -114 -68 -8 0 -8 0 -13 -13 -13 -14 -26 -14 -26
-14 -51 -27 -51 -28 -6 -10 -6 -10 -29 0 -29 0 -8 13 -8 14 -65 34 -65 33 -25
17 -25 17 -148 83 -148 84 -47 28 -47 28 -15 6 -15 6 -15 12 -15 12 -65 34
-65 34 -35 23 -35 24 -20 9 -20 9 -30 20 -30 20 -25 12 -25 12 -28 19 -28 19
-51 27 -52 28 -3 10 -4 10 54 35 54 36 49 26 49 27 58 34 58 34 26 21 26 20
10 0 9 0 68 45 68 45 5 0 5 0 114 70 113 69 11 1 12 0 11 -14z m-762 -536 l68
-41 15 -9 15 -10 65 -36 65 -37 75 -44 75 -44 15 -10 15 -9 55 -29 55 -29 38
-26 38 -26 10 0 10 0 33 -25 33 -25 11 0 11 0 13 -13 13 -12 25 -12 25 -12 50
-30 50 -30 30 -15 30 -15 40 -24 40 -23 44 -28 45 -29 -30 -24 -29 -24 -20
-10 -20 -9 -65 -45 -65 -44 -34 -26 -34 -25 -14 0 -13 0 0 -10 0 -11 -17 -7
-18 -7 -105 -69 -105 -69 -120 -80 -120 -80 -133 -91 -134 -91 -34 -20 -33
-20 -132 -90 -131 -90 -18 -10 -18 -11 -16 -13 -17 -14 -11 11 -12 12 16 17
16 18 6 60 6 60 11 65 11 65 14 62 14 62 0 30 0 30 15 43 14 43 10 85 10 85
10 58 9 58 11 47 10 47 11 60 11 60 10 60 10 60 24 130 24 130 11 65 12 65 5
30 4 30 4 13 4 12 6 0 5 0 67 -40z m1981 -408 l2 -212 -47 -82 -47 -83 -43
-73 -43 -73 0 -9 0 -9 -13 -13 -13 -13 -21 -40 -21 -40 -88 -150 -87 -150 -24
-45 -24 -45 -19 -30 -19 -30 -26 -45 -25 -45 -21 -35 -22 -35 -16 -30 -16 -30
-17 -25 -16 -25 -36 -65 -36 -65 -22 -43 -22 -42 -8 2 -8 3 -1 665 0 665 43
27 43 27 70 40 70 40 30 18 30 18 71 42 71 43 8 0 8 0 17 15 16 15 40 22 41
23 77 45 77 45 21 11 20 12 11 11 11 11 11 -3 10 -4 3 -211z m-850 -979 l-3
-688 -100 -6 -100 -6 -350 -11 -350 -11 -175 -13 -175 -13 -130 0 -130 0 -3
214 -2 213 12 15 12 15 204 136 204 137 27 16 26 16 75 52 75 51 85 57 85 56
160 106 159 106 18 10 17 10 167 113 168 112 13 0 13 0 -2 -687z M1080 888
l-1 -13 0 -209 0 -208 3 -3 3 -3 45 -2 45 -3 88 2 88 1 40 38 41 38 9 42 9 42
9 42 9 43 -14 34 -14 33 0 18 0 17 -21 27 -21 27 -39 25 -39 24 -120 0 -120 0
0 -12z m228 -62 l27 -14 23 -31 22 -30 0 -81 0 -80 -22 -35 -23 -35 -35 -10
-35 -10 -45 0 -45 0 -12 8 -12 7 -2 151 -2 151 7 12 7 11 60 0 60 0 27 -14z"/>
</g>
</svg>