<svg version="1.0" xmlns="http://www.w3.org/2000/svg"
 width="432" height="612" viewBox="0 0 432.000000 612.000000"
 preserveAspectRatio="xMidYMid meet">
<g transform="translate(0.000000,612.000000) scale(0.100000,-0.100000)"
fill="currentColor" stroke="none">
<path d="M880 5800 l-695 -5 -3 -17 -3 -18 1996 0 1996 0 -3 23 -3 22 -1295 0
-1295 0 -695 -5z M1670 3873 l-25 -4 -32 -15 -31 -14 -27 0 -27 0 -96 -47 -97
-47 -90 -60 -90 -61 -89 -85 -88 -85 -77 -94 -76 -94 -76 -112 -76 -112 -48
-99 -47 -99 -22 -45 -22 -45 -13 -45 -13 -45 -14 -28 -14 -29 0 -11 -1 -12
-19 -40 -19 -40 -1 -225 0 -226 14 -19 14 -20 48 -25 49 -24 63 -38 62 -38 4
0 5 0 60 -40 60 -40 24 -9 24 -9 67 -41 66 -41 5 0 4 0 37 -25 37 -25 21 0 21
0 22 13 22 12 101 58 101 57 7 0 7 0 36 24 36 25 69 37 69 37 40 26 40 25 22
12 22 12 32 19 33 18 50 33 51 32 8 0 9 0 45 30 44 30 4 0 4 0 74 45 75 45 7
0 8 0 31 23 31 23 25 12 25 12 45 27 45 26 40 26 40 25 40 23 40 23 25 13 25
12 5 6 5 7 75 42 75 42 72 41 72 42 15 20 15 20 1 237 0 237 -25 48 -26 48
-19 20 -20 21 0 12 0 11 -37 28 -38 28 -20 19 -20 19 -50 24 -50 24 -60 34
-60 34 -20 11 -20 10 -40 23 -40 23 -60 34 -60 33 -60 32 -60 32 -44 29 -43
29 -22 12 -21 11 -46 21 -46 21 -104 -1 -104 -2 -25 -4z m283 -67 l54 -24 8
-12 7 -12 42 -18 41 -19 30 -18 30 -18 73 -42 73 -43 5 0 6 0 54 -32 54 -33 0
-6 0 -6 -60 -6 -61 -7 -29 -15 -29 -15 -29 0 -30 0 -58 -26 -59 -26 -51 -24
-50 -24 -58 -40 -57 -40 -8 0 -9 0 -73 -68 -74 -69 -16 -9 -16 -9 -79 -95 -79
-96 -36 -44 -36 -45 -18 -35 -17 -35 -23 -25 -22 -25 -35 -60 -36 -60 -52
-110 -52 -110 -20 -60 -20 -60 -14 -22 -14 -22 0 -23 0 -23 -15 -29 -15 -28 0
-204 0 -204 -12 0 -12 0 -105 62 -106 61 -150 88 -151 88 -27 10 -27 11 0 220
0 220 31 92 30 93 8 10 8 10 7 29 7 28 45 97 45 96 9 15 9 15 18 35 17 35 65
95 64 95 87 105 88 105 82 78 81 77 4 0 4 0 104 70 104 70 12 0 12 0 64 30 65
30 62 14 63 13 107 2 107 1 54 -24z m650 -367 l71 -31 14 -14 13 -14 8 0 8 0
42 -42 42 -43 26 -45 27 -45 -3 -244 -2 -245 -21 -16 -21 -15 -81 -47 -81 -46
-70 -41 -70 -41 -15 -9 -15 -10 -80 -46 -80 -47 -15 -9 -15 -9 -45 -25 -45
-25 -45 -27 -45 -26 -40 -26 -40 -25 -40 -23 -40 -24 -27 -10 -28 -11 0 -8 0
-9 -21 -6 -21 -7 -60 -36 -59 -37 -45 -25 -44 -25 -112 -65 -113 -65 -50 -27
-50 -28 -25 -12 -25 -13 -5 -5 -5 -6 -61 -32 -62 -31 -5 5 -4 5 4 202 5 202
25 75 26 75 14 40 14 40 9 20 9 20 56 119 56 119 51 76 51 76 30 45 31 45 71
85 70 85 80 78 80 78 103 70 103 70 50 19 50 20 22 14 22 14 75 17 75 17 25 8
25 8 88 1 89 1 71 -31z M1277 777 l-17 -12 2 -215 3 -215 131 -3 132 -3 43 33
43 33 8 35 8 35 -6 36 -5 36 -30 22 -30 22 26 30 25 31 0 31 0 32 -20 32 -19
32 -38 10 -38 11 -101 0 -100 0 -17 -13z m249 -72 l14 -19 0 -17 0 -16 -21
-27 -21 -27 -77 3 -76 3 -3 48 -3 49 12 14 11 14 75 -3 75 -2 14 -20z m14
-187 l20 -22 0 -32 0 -32 -23 -15 -23 -15 -66 -7 -66 -7 -21 7 -21 6 0 63 0
63 7 6 6 7 83 0 83 0 21 -22z"/>
</g>
</svg>