<svg version="1.0" xmlns="http://www.w3.org/2000/svg"
 width="414" height="477" viewBox="0 0 414.000000 477.000000"
 preserveAspectRatio="xMidYMid meet">
<g transform="translate(0.000000,477.000000) scale(0.100000,-0.100000)"
fill="#333" stroke="none">
<path d="M2343 2982 l-32 -17 -52 -28 -52 -28 -44 -29 -44 -30 -10 0 -10 0
-42 -27 -42 -28 -20 -12 -20 -12 -39 -21 -39 -21 -69 -45 -69 -45 -39 -22 -39
-22 -136 -85 -137 -85 -46 -26 -47 -27 -190 -114 -190 -114 -3 -386 -2 -386
102 -57 103 -58 27 -18 27 -19 6 0 5 0 40 -25 40 -25 68 -37 67 -36 19 -11 20
-11 60 -40 61 -40 85 -43 85 -42 54 -10 54 -10 11 -9 11 -9 70 -11 70 -11 50
-9 50 -10 160 0 160 0 65 9 65 9 72 11 73 11 27 14 28 15 21 0 21 0 44 15 44
16 75 36 75 37 46 38 47 38 10 0 10 0 64 73 64 72 21 36 20 35 16 50 16 49 2
305 1 305 11 75 10 75 -1 25 -1 25 -9 50 -9 50 -22 39 -21 40 -57 65 -57 66
-11 7 -10 6 -44 34 -43 33 -27 15 -26 15 -110 59 -110 60 -88 53 -88 53 -9 0
-9 0 -43 29 -43 28 -45 26 -45 26 -39 21 -40 20 0 0 -1 0 -32 -18z m111 -77
l61 -35 15 -9 15 -9 120 -68 120 -67 54 -29 54 -30 36 -24 36 -24 9 0 9 0 76
-47 76 -46 65 -66 65 -65 14 -26 14 -25 19 -35 18 -34 -7 -111 -6 -110 -26
-42 -27 -43 -53 -55 -54 -56 -71 -47 -71 -48 -75 -36 -75 -36 -25 -5 -25 -5
-60 -17 -60 -17 -85 -14 -85 -15 -100 -10 -100 -9 -100 6 -100 6 -17 9 -17 9
-63 6 -63 6 -90 25 -90 25 -61 29 -61 29 -9 0 -8 0 -72 50 -72 50 -44 20 -43
20 -50 30 -50 31 -27 10 -28 11 0 8 0 8 -27 11 -28 10 -40 24 -40 23 -40 25
-40 25 -17 7 -18 6 0 8 0 8 8 11 7 11 45 26 45 27 22 9 21 10 6 10 7 10 42 21
42 20 30 18 29 17 14 13 13 12 10 0 10 0 32 24 32 25 25 11 25 11 75 49 75 49
40 22 40 21 43 29 43 29 5 0 4 0 58 39 57 39 50 26 50 27 30 19 30 19 37 20
37 20 43 28 43 27 60 33 60 32 19 1 19 0 61 -35z m-1440 -844 l6 -9 78 -43 77
-42 51 -28 50 -27 93 -56 94 -56 8 0 9 0 64 -45 65 -45 11 0 11 0 27 -19 27
-20 55 -17 55 -17 10 -8 9 -9 26 0 26 0 20 -15 21 -14 94 -12 94 -11 114 -7
113 -6 107 6 106 6 95 12 95 12 30 14 30 14 60 17 60 16 85 40 84 40 49 36 49
37 67 68 67 67 7 0 7 0 0 -257 0 -258 -14 -45 -14 -45 -16 -35 -15 -35 -48
-57 -48 -56 -65 -49 -65 -49 -93 -47 -93 -47 -17 0 -17 0 -55 -21 -55 -21 -90
-13 -90 -13 -45 -11 -45 -10 -150 0 -150 -1 -74 20 -75 20 -41 0 -41 0 -64 25
-64 25 -18 0 -18 0 -57 31 -58 31 -68 42 -68 41 -37 20 -37 21 -42 27 -43 27
-6 0 -6 0 -71 41 -72 42 -95 55 -95 55 -7 11 -8 11 0 328 0 327 19 0 20 0 5
-9z"/>
</g>
</svg>